<svg class="icon" viewBox="0 0 1024 1024" xmlns="http://www.w3.org/2000/svg"><path d="M341.333 85.333h341.334l85.333 128h128q52.992 0 90.496 38.187T1024 342.699v468.65q0 52.992-37.504 90.155T896 938.667H128q-52.992 0-90.496-37.504T0 810.667V342.016q0-52.992 37.504-90.837T128 213.333h128zm170.667 256q43.35 0 82.816 16.982t68.01 45.482 45.483 68.011 16.982 82.816-16.982 82.816-45.482 68.01-68.011 45.483T512 767.915t-82.816-16.982-68.01-45.482-45.483-68.011-16.982-82.816 16.982-82.816 45.482-68.01 68.011-45.483T512 341.333zm0 85.334q-52.992 0-90.496 37.504T384 554.667t37.504 90.496T512 682.667t90.496-37.504T640 554.667t-37.504-90.496T512 426.667zm210.347-128-83.67-128H387.03l-85.333 128H128.043q-17.664 0-30.166 12.672t-12.501 30.677v468.65q0 17.665 12.501 30.166t30.166 12.501h768q18.005 0 30.336-12.16t12.33-29.824V342.7q0-18.006-12.672-31.019t-29.994-13.013H722.389z"/></svg>