<svg class="icon" viewBox="0 0 1024 1024" xmlns="http://www.w3.org/2000/svg"><path d="M987.429 512.343V512c0-262.629-212.8-475.429-475.429-475.429S36.571 249.371 36.571 512v.457c0 262.629 212.8 475.429 475.429 475.429s475.429-212.8 475.429-475.429v-.343.229zm-7.658-85.257.686 3.771-.686-3.771zM700.23 656.229c61.142-93.943 60-216.458-12.686-301.372l185.6-9.6C896.57 396 909.714 452.457 909.714 512c0 211.657-165.257 384.686-373.828 397.029l164.343-252.8zM512 672.343c-88.571 0-160.229-71.657-160.229-160.229 0-88.8 71.658-160.228 160.229-160.228S672.229 423.429 672.229 512 600.57 672.343 512 672.343zm421.943-379.086-3.429-6.514 3.429 6.514zM512 114.286c138.629 0 260.8 70.971 331.886 178.514l-301.257-15.886C431.2 270.4 325.257 333.143 288.57 438.171L187.2 282.286c72.114-101.6 190.743-168 324.8-168zM44 596.343c29.714 165.714 145.257 301.714 298.971 360.114C189.257 898.286 73.714 762.286 44 596.343zM114.286 512c0-63.886 15.085-124.229 41.828-177.714l136.8 269.028c50.4 99.086 157.029 159.657 267.429 138.972L475.77 908.114C273.03 889.714 114.286 719.43 114.286 512zM485.37 986.743c4.572.228 9.143.457 13.715.571-4.572-.228-9.143-.343-13.715-.571z"/></svg>