<svg class="icon" viewBox="0 0 1024 1024" xmlns="http://www.w3.org/2000/svg"><path d="M276 551.4h315c22.1 0 39.4-17.3 39.4-39.4 0-22.1-17.3-39.4-39.4-39.4H276c-22.1 0-39.4 17.3-39.4 39.4 0 22.1 17.3 39.4 39.4 39.4zM866.7 0H157.8C71.2 0 .3 70.9.3 157.5v708.9c0 86.6 70.9 157.5 157.5 157.5h708.9c86.6 0 157.6-70.9 157.6-157.5V157.5C1024.3 70.9 953.4 0 866.7 0zm78.8 866.5c0 43.3-35.4 78.8-78.8 78.8H157.8c-43.3 0-78.8-35.4-78.8-78.8v-709c0-43.3 35.4-78.8 78.8-78.8h708.9c43.3 0 78.8 35.4 78.8 78.8v709zM748.6 236.3H276c-22.1 0-39.4 17.3-39.4 39.4 0 22.1 17.3 39.4 39.4 39.4h472.6c22.1 0 39.4-17.3 39.4-39.4 0-22.1-17.4-39.4-39.4-39.4zm-78.8 472.6H276c-22.1 0-39.4 17.3-39.4 39.4s17.3 39.4 39.4 39.4h393.8c22.1 0 39.4-17.3 39.4-39.4s-17.3-39.4-39.4-39.4zm0 0"/></svg>