<svg xmlns="http://www.w3.org/2000/svg" viewBox="0 0 1024 1024" class="icon"><path d="M877.389 551.303h106.25a40.36 40.36 0 1 0 0-80.721H877.39a158.039 158.039 0 0 0-305.137 0H42.7a40.36 40.36 0 1 0 0 80.721h529.552a158.039 158.039 0 0 0 305.137 0zm-230.251-40.36a77.196 77.196 0 1 1 77.196 77.195 77.318 77.318 0 0 1-77.196-77.196zM453.966 221.973h529.673a40.482 40.482 0 0 0 0-80.843H453.966a158.039 158.039 0 0 0-305.137 0H42.699a40.482 40.482 0 1 0 0 80.843h106.008a158.039 158.039 0 0 0 305.137 0zM224.2 181.614a77.196 77.196 0 1 1 77.196 77.195 77.318 77.318 0 0 1-77.196-77.196zm77.196 816.696a158.039 158.039 0 0 0 152.569-117.678h529.673a40.36 40.36 0 1 0 0-80.722H453.966a158.039 158.039 0 0 0-305.137 0H42.699a40.36 40.36 0 1 0 0 80.722h106.008a158.039 158.039 0 0 0 152.69 117.678zm-77.196-158.039a77.196 77.196 0 1 1 77.196 77.196 77.318 77.318 0 0 1-77.196-77.196z"/></svg>