<?xml version="1.0" encoding="UTF-8" standalone="no"?>
<svg
   t="1689161733581"
   class="icon"
   viewBox="0 0 1024 1024"
   version="1.1"
   p-id="2078"
   width="400"
   height="400"
   id="svg6"
   sodipodi:docname="适应宽-新.svg"
   inkscape:version="1.2.2 (b0a84865, 2022-12-01)"
   xmlns:inkscape="http://www.inkscape.org/namespaces/inkscape"
   xmlns:sodipodi="http://sodipodi.sourceforge.net/DTD/sodipodi-0.dtd"
   xmlns="http://www.w3.org/2000/svg"
   xmlns:svg="http://www.w3.org/2000/svg">
  <defs
     id="defs10" />
  <sodipodi:namedview
     id="namedview8"
     pagecolor="#ffffff"
     bordercolor="#000000"
     borderopacity="0.25"
     inkscape:showpageshadow="2"
     inkscape:pageopacity="0.0"
     inkscape:pagecheckerboard="0"
     inkscape:deskcolor="#d1d1d1"
     showgrid="false"
     inkscape:zoom="1.2646927"
     inkscape:cx="209.53707"
     inkscape:cy="203.21142"
     inkscape:window-width="1512"
     inkscape:window-height="840"
     inkscape:window-x="0"
     inkscape:window-y="38"
     inkscape:window-maximized="1"
     inkscape:current-layer="svg6" />
  <path
     d="M825.856 65.344H212.544a137.856 137.856 0 0 0-137.728 137.728v613.376c0 75.968 61.76 137.728 137.728 137.728h613.312a137.92 137.92 0 0 0 137.728-137.728V203.136a137.856 137.856 0 0 0-137.728-137.792z m105.792 751.168c0 58.304-47.424 105.728-105.728 105.728H212.544a105.856 105.856 0 0 1-105.728-105.728V203.136c0-58.304 47.424-105.728 105.728-105.728h613.312c58.304 0 105.728 47.424 105.728 105.728v613.376z"
     fill="#070001"
     p-id="2079"
     id="path2"
     style="stroke:#000000;stroke-opacity:1;stroke-width:38.4;stroke-dasharray:none;fill:none" />
  <path
     d="m 678.4,377.6 c -6.5481,-5.50689 -16.1079,-5.50689 -22.656,0 -6.2927,5.22083 -6.2927,14.87517 0,20.096 L 762.24,492.288 H 273.024 L 382.72,394.816 c 6.2927,-5.22083 6.2927,-14.87517 0,-20.096 -6.5481,-5.50689 -11.76892,-9.84587 -18.31702,-4.33898 L 220.992,498.304 c -6.2927,5.22083 -6.2927,14.87517 0,20.096 l 139.136,123.52 c 6.272,5.504 16.384,5.504 22.656,0 6.272,-5.504 6.272,-14.528 0,-20.032 l -109.888,-97.6 h 496 l -113.152,100.48 c -6.272,5.568 -6.272,14.592 0,20.032 6.272,5.44 16.384,5.504 22.656,0 L 817.536,521.216 c 6.2927,-5.22083 6.2927,-14.87517 0,-20.096 z"
     fill="#070001"
     p-id="2080"
     id="path4"
     style="fill:none;fill-opacity:1;stroke-width:38.4;stroke-dasharray:none;paint-order:fill markers stroke;opacity:1;stroke:#000000;stroke-opacity:1"
     inkscape:transform-center-x="177.89831"
     inkscape:transform-center-y="-282.0339"
     sodipodi:nodetypes="cccccccccccsccccscccc" />
</svg>
