<svg xmlns="http://www.w3.org/2000/svg" viewBox="0 0 1024 1024" class="icon"><path d="M896.035 128a128 128 0 1 0-164.01 122.88v127.573l-220.288 220.16-220.203-220.16V251.008A128.043 128.043 0 0 0 256.035 0a128 128 0 0 0-36.48 250.71v156.885l-.298.298 256.768 256.811v108.373A128.085 128.085 0 0 0 512.035 1024a128 128 0 0 0 36.011-250.88V664.192l256.256-256.299-.299-.298V250.88A128.085 128.085 0 0 0 896.035 128zm-696.02 0a56.021 56.021 0 1 1 112.084.085A56.021 56.021 0 0 1 200.014 128zm368.042 768a56.021 56.021 0 1 1-112.086-.085 56.021 56.021 0 0 1 112.086.085zm199.978-712.021a56.021 56.021 0 1 1 .086-112.043 56.021 56.021 0 0 1-.086 112.085z"/></svg>