<svg xmlns="http://www.w3.org/2000/svg" viewBox="0 0 1024 1024" class="icon"><path fill="#221E1F" d="M116.258 465.034h232.516A116.258 116.258 0 0 0 465.03 348.776V116.261A116.258 116.258 0 0 0 348.774.004H116.258A116.258 116.258 0 0 0 .001 116.26v232.515a116.258 116.258 0 0 0 116.257 116.258zM93.007 116.26a23.252 23.252 0 0 1 23.251-23.251h232.516a23.252 23.252 0 0 1 23.251 23.251v232.515a23.252 23.252 0 0 1-23.251 23.252H116.258a23.252 23.252 0 0 1-23.251-23.252zM907.74.004H675.225a116.258 116.258 0 0 0-117.188 116.722v232.515A116.723 116.723 0 0 0 674.295 465.5H906.81a116.723 116.723 0 0 0 116.257-116.258V116.726A116.723 116.723 0 0 0 907.74.004zm23.251 348.772a23.717 23.717 0 0 1-23.251 23.252H675.225a23.252 23.252 0 0 1-23.252-23.252V116.261a23.252 23.252 0 0 1 23.252-23.251H907.74a23.252 23.252 0 0 1 23.251 23.251zM907.74 558.04H675.225a116.258 116.258 0 0 0-116.258 116.257v232.515a116.723 116.723 0 0 0 116.258 116.258H907.74a116.723 116.723 0 0 0 116.257-116.258V674.297A116.723 116.723 0 0 0 907.74 558.04zm23.251 348.772a23.717 23.717 0 0 1-23.251 23.252H675.225a23.252 23.252 0 0 1-23.252-23.252V674.297a23.252 23.252 0 0 1 23.252-23.251H907.74a23.252 23.252 0 0 1 23.251 23.251zM348.774 558.04H116.258A116.723 116.723 0 0 0 .001 675.227v232.515a116.723 116.723 0 0 0 116.257 115.328h232.516A116.723 116.723 0 0 0 465.03 906.812V674.297A116.258 116.258 0 0 0 348.774 558.04zm23.251 348.772a23.252 23.252 0 0 1-23.251 23.252H116.258a23.717 23.717 0 0 1-23.251-23.252V674.297a23.252 23.252 0 0 1 23.251-23.251h232.516a23.252 23.252 0 0 1 23.251 23.251z" data-follow-fill="#221E1F"/></svg>