<svg class="icon" viewBox="0 0 1024 1024" xmlns="http://www.w3.org/2000/svg"><path d="M512 42.667c-25.6 0-42.667 17.066-42.667 42.666V256c0 25.6 17.067 42.667 42.667 42.667S554.667 281.6 554.667 256V85.333c0-25.6-17.067-42.666-42.667-42.666zm0 682.666c-25.6 0-42.667 17.067-42.667 42.667v170.667c0 25.6 17.067 42.666 42.667 42.666s42.667-17.066 42.667-42.666V768c0-25.6-17.067-42.667-42.667-42.667zM238.933 179.2c-17.066-17.067-42.666-12.8-59.733 4.267-17.067 17.066-17.067 42.666 0 59.733l119.467 119.467c17.066 17.066 42.666 17.066 59.733 4.266 17.067-17.066 17.067-42.666 4.267-59.733l-4.267-4.267L238.933 179.2zm486.4 482.133c-17.066-17.066-42.666-12.8-59.733 4.267s-17.067 42.667 0 59.733L785.067 844.8c17.066 17.067 42.666 17.067 59.733 4.267s17.067-42.667 4.267-59.734l-4.267-4.266-119.467-123.734zM298.667 512c0-25.6-17.067-42.667-42.667-42.667H85.333c-25.6 0-42.666 17.067-42.666 42.667s17.066 42.667 42.666 42.667H256c25.6 0 42.667-17.067 42.667-42.667zm640-42.667H768c-25.6 0-42.667 17.067-42.667 42.667S742.4 554.667 768 554.667h170.667c25.6 0 42.666-17.067 42.666-42.667s-17.066-42.667-42.666-42.667zm-635.734 192L183.467 780.8c-17.067 17.067-17.067 42.667-4.267 59.733s42.667 17.067 59.733 4.267l4.267-4.267 119.467-119.466c17.066-17.067 17.066-42.667 4.266-59.734s-46.933-17.066-64 0zM691.2 375.467c12.8 0 21.333-4.267 29.867-12.8L840.533 243.2c17.067-17.067 17.067-42.667 4.267-59.733-17.067-17.067-42.667-17.067-59.733-4.267l-4.267 4.267-119.467 119.466c-17.066 17.067-17.066 42.667 0 59.734 8.534 8.533 21.334 12.8 29.867 12.8z"/></svg>