<svg class="icon" viewBox="0 0 1024 1024" xmlns="http://www.w3.org/2000/svg"><path d="M981.333 85.333A42.667 42.667 0 0 1 1024 128v768a128 128 0 0 1-128 128H128A128 128 0 0 1 0 896V128a42.667 42.667 0 1 1 85.333 0v768A42.667 42.667 0 0 0 128 938.667h768A42.667 42.667 0 0 0 938.667 896V128a42.667 42.667 0 0 1 42.666-42.667zM640 704a42.667 42.667 0 1 1 0 85.333H384A42.667 42.667 0 1 1 384 704zm0-213.333A42.667 42.667 0 1 1 640 576H384a42.667 42.667 0 1 1 0-85.333zm0-213.334a42.667 42.667 0 1 1 0 85.334H384a42.667 42.667 0 1 1 0-85.334zM768 0a42.667 42.667 0 1 1 0 85.333H256A42.667 42.667 0 1 1 256 0z"/></svg>