<svg class="icon" viewBox="0 0 1024 1024" xmlns="http://www.w3.org/2000/svg"><path d="M896 554.667H128c-25.6 0-42.667-17.067-42.667-42.667S102.4 469.333 128 469.333h768c25.6 0 42.667 17.067 42.667 42.667S921.6 554.667 896 554.667zm0-256H128c-25.6 0-42.667-17.067-42.667-42.667S102.4 213.333 128 213.333h768c25.6 0 42.667 17.067 42.667 42.667S921.6 298.667 896 298.667zm0 512H128c-25.6 0-42.667-17.067-42.667-42.667S102.4 725.333 128 725.333h768c25.6 0 42.667 17.067 42.667 42.667S921.6 810.667 896 810.667z"/></svg>