<svg xmlns="http://www.w3.org/2000/svg" viewBox="0 0 1024 1024" class="icon"><path d="M512 0C228.96 0 0 228.96 0 512c0 283.04 228.96 512 512 512 283.04 0 512-228.96 512-512C1024 228.96 795.04 0 512 0zm0 903.52c-216.8 0-391.52-174.72-391.52-391.52 0-216.8 174.72-391.52 391.52-391.52 216.8 0 391.52 174.72 391.52 391.52 0 216.8-174.72 391.52-391.52 391.52z"/><path d="M316.16 512c0 108.16 87.68 195.84 195.84 195.84S707.84 620.16 707.84 512 620.16 316.16 512 316.16 316.16 403.84 316.16 512zm0 0"/></svg>