<svg xmlns="http://www.w3.org/2000/svg" viewBox="0 0 1024 1024" class="icon"><path d="M372.622 512c0-39.822 14.222-73.956 39.822-99.556 25.6-25.6 59.734-39.822 99.556-39.822s73.956 14.222 99.556 39.822c25.6 28.445 39.822 59.734 39.822 99.556 0 36.978-14.222 71.111-39.822 96.711-25.6 28.445-59.734 39.822-102.4 39.822-39.823 0-71.112-14.222-99.556-39.822-22.756-25.6-36.978-56.889-36.978-96.711zM0 512c0-39.822 14.222-73.956 39.822-99.556 25.6-25.6 59.734-39.822 99.556-39.822s73.955 14.222 99.555 39.822c25.6 28.445 39.823 59.734 39.823 99.556 0 36.978-14.223 71.111-39.823 96.711-25.6 28.445-59.733 39.822-102.4 39.822-39.822 0-71.11-14.222-99.555-39.822C14.222 583.111 0 551.822 0 512zm745.244 0c0-39.822 14.223-73.956 39.823-99.556 25.6-25.6 59.733-39.822 99.555-39.822s73.956 14.222 99.556 39.822C1009.778 440.89 1024 472.178 1024 512c0 36.978-14.222 71.111-39.822 96.711-25.6 28.445-59.734 39.822-102.4 39.822-39.822 0-71.111-14.222-99.556-39.822-25.6-25.6-36.978-56.889-36.978-96.711z"/></svg>