<svg class="icon" viewBox="0 0 1024 1024" xmlns="http://www.w3.org/2000/svg"><path d="M846.3 233.4H514c-10 0-19.1-5.8-23.2-14.9l-20.7-45.2c-18.5-40.5-58.9-66.4-103.4-66.4h-187C116.9 106.9 66 157.8 66 220.6V790c0 62.8 50.9 113.7 113.7 113.7h666.5c62.8 0 113.7-50.9 113.7-113.7V347.2c.1-62.9-50.8-113.8-113.6-113.8zM896 790c0 27.5-22.3 49.7-49.7 49.7H179.7c-27.5 0-49.7-22.3-49.7-49.7V220.6c0-27.5 22.3-49.7 49.7-49.7h187c19.4 0 37.2 11.4 45.2 29l29.1 63.6c9.4 20.6 30 33.8 52.7 33.8h352.6c27.5 0 49.7 22.3 49.7 49.7v443z"/><path d="M670.1 537.1H543V410c0-17.6-14.4-32-32-32s-32 14.4-32 32v127.1H351.9c-17.6 0-32 14.4-32 32s14.4 32 32 32H479v127.1c0 17.6 14.4 32 32 32s32-14.4 32-32V601.1h127.1c17.6 0 32-14.4 32-32s-14.4-32-32-32z"/></svg>