<svg class="icon" viewBox="0 0 1024 1024" xmlns="http://www.w3.org/2000/svg"><path d="M234.667 938.667a63.573 63.573 0 0 1-24.918-5.035 64 64 0 0 1-10.88-5.888 64.427 64.427 0 0 1-9.472-7.808 64.213 64.213 0 0 1-7.808-9.472 64 64 0 0 1-5.888-10.88 63.701 63.701 0 0 1-5.034-24.917V149.333a63.701 63.701 0 0 1 5.034-24.917 64 64 0 0 1 5.888-10.88 64 64 0 0 1 7.808-9.472 64.64 64.64 0 0 1 9.472-7.808 64 64 0 0 1 10.88-5.888 63.573 63.573 0 0 1 24.918-5.035H640l213.333 213.334v576a63.488 63.488 0 0 1-5.034 24.917 64 64 0 0 1-5.888 10.88 64.981 64.981 0 0 1-7.808 9.472 64 64 0 0 1-9.472 7.808 64 64 0 0 1-10.88 5.888 63.616 63.616 0 0 1-24.918 5.035zm-4.267-59.734h563.2V384H554.667V145.067H230.4zm563.968-554.666L614.4 144.299l.768.768h-.768v179.2h179.2v-.768zm-312.235 473.6v-140.8h-140.8v-59.734h140.8v-140.8h59.734v140.8h140.8v59.734h-140.8v140.8z"/></svg>