<svg data-spm-anchor-id="a313x.7781069.0.i0" xmlns="http://www.w3.org/2000/svg" viewBox="0 0 1024 1024" class="icon"><path d="m750.379 391.381-25.046-25.045v-94.805A261.461 261.461 0 0 0 768 128a42.667 42.667 0 0 0-42.667-42.667H298.667A42.667 42.667 0 0 0 256 128a261.163 261.163 0 0 0 42.667 143.53v94.806l-25.046 25.045A349.27 349.27 0 0 0 170.667 640a42.667 42.667 0 0 0 42.666 42.667h256V896a42.667 42.667 0 0 0 85.334 0V682.667h256A42.667 42.667 0 0 0 853.333 640 349.227 349.227 0 0 0 750.38 391.381zM259.37 597.333a264.192 264.192 0 0 1 74.581-145.578l37.547-37.547A42.667 42.667 0 0 0 384 384V256a42.667 42.667 0 0 0-12.501-30.165 124.16 124.16 0 0 1-24.96-55.168H677.46a124.587 124.587 0 0 1-24.96 55.168A42.667 42.667 0 0 0 640 256v128a42.667 42.667 0 0 0 12.501 30.165l37.547 37.547a264.533 264.533 0 0 1 74.581 145.621z"/></svg>