<svg class="icon" viewBox="0 0 1024 1024" xmlns="http://www.w3.org/2000/svg"><path d="M550.912 961.536h-3.072c-72.704-1.024-125.952-52.224-145.408-138.24C368.64 671.744 307.2 677.888 222.208 687.104c-49.152 5.12-104.448 11.264-146.432-26.624-33.792-30.72-49.152-81.92-49.152-160.768 0-241.664 196.608-438.272 438.272-438.272 193.536 0 366.592 130.048 420.864 316.416 6.144 21.504-6.144 44.032-27.648 51.2-21.504 6.144-44.032-6.144-51.2-27.648-44.032-151.552-184.32-257.024-342.016-257.024-196.608 0-356.352 159.744-356.352 356.352 0 69.632 14.336 93.184 22.528 100.352 14.336 13.312 47.104 9.216 82.944 6.144 87.04-9.216 219.136-23.552 269.312 199.68 16.384 73.728 54.272 73.728 66.56 74.752h1.024C634.88 879.616 768 754.688 808.96 595.968c6.144-21.504 27.648-34.816 50.176-29.696 21.504 6.144 34.816 27.648 29.696 50.176-49.152 185.344-205.824 345.088-337.92 345.088z"/><path d="M171.008 458.752a69.632 69.632 0 1 0 139.264 0 69.632 69.632 0 1 0-139.264 0ZM390.144 296.96a52.224 52.224 0 1 0 104.448 0 52.224 52.224 0 1 0-104.448 0Zm225.28 69.632a43.008 43.008 0 1 0 86.016 0 43.008 43.008 0 1 0-86.016 0Zm-97.28 287.744c-17.408 0-32.768-10.24-38.912-27.648-7.168-21.504 4.096-45.056 25.6-52.224L946.176 419.84c21.504-7.168 45.056 4.096 52.224 25.6 7.168 21.504-4.096 45.056-25.6 52.224L531.456 652.288c-5.12 1.024-9.216 2.048-13.312 2.048z"/></svg>