<?xml version="1.0" standalone="no"?><!DOCTYPE svg PUBLIC "-//W3C//DTD SVG 1.1//EN" "http://www.w3.org/Graphics/SVG/1.1/DTD/svg11.dtd"><svg t="1700379753698" class="icon" viewBox="0 0 1024 1024" version="1.1" xmlns="http://www.w3.org/2000/svg" p-id="2228" xmlns:xlink="http://www.w3.org/1999/xlink" width="400" height="400"><path d="M437.72 558.66h-84.6l-18 51.61h-47.4l77.7-208.21h61.2l77.1 208.21h-48.3z m-13.2-37.8l-27-78.9h-3.6l-27.6 78.9zM681.91 498.06v112.21h-39l-4.2-18.91c-6.9 12-24.9 21.91-51.6 21.91-36.3 0-55.5-15.91-55.5-49.5 0-37.51 23.1-51 66.6-51h40.2v-4.2c0-19.2-6-26.7-34.5-26.7a186.83 186.83 0 0 0-34.5 3V448a359.32 359.32 0 0 1 39.6-2.4c54.3-0.04 72.9 18.26 72.9 52.46z m-43.5 63v-18.9h-33.6c-21.6 0-30.3 3.6-30.3 20.11 0 12.89 6.9 17.69 23.7 17.69 20.1 0.04 34.5-7.8 40.2-18.9z" p-id="2229" fill="#000000"></path><path d="M160.59 346.62a3 3 0 0 0 0.9 0.1 6.78 6.78 0 0 1 0.9 0.3h632.8a36 36 0 0 0 0-72h-544.1l116-116a36 36 0 0 0-49.81-52c-0.37 0.36-0.73 0.72-1.09 1.1l-177.5 177.5c-0.4 0.4-0.8 0.9-1.2 1.3l-0.6 0.6c-0.2 0.2-0.4 0.5-0.6 0.7a2.7 2.7 0 0 0-0.7 0.8 2 2 0 0 0-0.4 0.5 5.16 5.16 0 0 0-0.7 0.9c-0.1 0.2-0.2 0.3-0.3 0.5s-0.4 0.7-0.6 1a3.21 3.21 0 0 0-0.3 0.5c-0.1 0.2-0.4 0.7-0.6 1l-0.3 0.6c-0.2 0.3-0.3 0.6-0.5 0.9l-0.3 0.6c-0.1 0.3-0.3 0.6-0.4 0.9s-0.2 0.5-0.3 0.8-0.2 0.5-0.3 0.8l-0.3 0.9a1.94 1.94 0 0 1-0.2 0.7c-0.1 0.3-0.2 0.7-0.3 1a4.17 4.17 0 0 1-0.2 0.6c-0.1 0.4-0.2 0.7-0.3 1.1 0 0.2-0.1 0.4-0.1 0.6a5.19 5.19 0 0 1-0.2 1.1c0 0.2-0.1 0.4-0.1 0.6a6.53 6.53 0 0 1-0.2 1.1c0 0.2-0.1 0.5-0.1 0.7 0 0.4-0.1 0.7-0.1 1.1a2.71 2.71 0 0 0-0.1 0.9 2 2 0 0 0-0.1 0.8 21.64 21.64 0 0 0 0 3.6 2 2 0 0 1 0.1 0.8 2.71 2.71 0 0 1 0.1 0.9c0 0.4 0.1 0.7 0.1 1.1 0 0.2 0.1 0.5 0.1 0.7a6.53 6.53 0 0 0 0.2 1.1c0 0.2 0.1 0.4 0.1 0.6a5.19 5.19 0 0 0 0.2 1.1c0 0.2 0.1 0.4 0.1 0.6 0.1 0.4 0.2 0.7 0.3 1.1 0.1 0.2 0.1 0.4 0.2 0.6s0.2 0.7 0.3 1a1.94 1.94 0 0 0 0.2 0.7l0.3 0.9c0.1 0.3 0.2 0.5 0.3 0.8s0.2 0.5 0.3 0.8 0.3 0.6 0.4 0.9l0.3 0.6c0.2 0.3 0.3 0.6 0.5 0.9l0.3 0.6c0.2 0.3 0.4 0.7 0.6 1a3.21 3.21 0 0 1 0.3 0.5c0.1 0.2 0.4 0.7 0.6 1a3.21 3.21 0 0 1 0.3 0.5 5.16 5.16 0 0 1 0.7 0.9 2 2 0 0 1 0.4 0.5 2.7 2.7 0 0 1 0.7 0.8c0.2 0.2 0.4 0.5 0.6 0.7a3.19 3.19 0 0 0 0.5 0.6 31 31 0 0 0 2.5 2.5 2.39 2.39 0 0 1 0.6 0.5c0.2 0.2 0.5 0.4 0.7 0.6a2.83 2.83 0 0 0 0.8 0.7 2.74 2.74 0 0 0 0.5 0.4 6.78 6.78 0 0 0 0.9 0.7c0.2 0.1 0.3 0.2 0.5 0.3s0.7 0.4 1 0.6a3.21 3.21 0 0 0 0.5 0.3c0.2 0.1 0.7 0.4 1 0.6l0.6 0.3c0.3 0.2 0.6 0.3 0.9 0.5a4.34 4.34 0 0 1 0.7 0.3c0.3 0.1 0.6 0.3 0.9 0.4s0.5 0.2 0.8 0.3 0.5 0.2 0.8 0.3l0.9 0.3a1.71 1.71 0 0 1 0.7 0.2l1 0.3a4.17 4.17 0 0 1 0.6 0.2l1.1 0.3c0.2 0 0.4 0.1 0.6 0.1a9.68 9.68 0 0 1 1.1 0.3c0.2 0 0.4 0.1 0.6 0.1a6.53 6.53 0 0 1 1.1 0.2c0.2 0 0.5 0.1 0.7 0.1 0.4 0 0.7 0.1 1.1 0.1zM863.41 677.18a3 3 0 0 0-0.9-0.1 2.18 2.18 0 0 0-0.8-0.1h-632.8a36 36 0 1 0 0 72H773L657 865a36 36 0 1 0 49.81 52c0.37-0.35 0.73-0.71 1.09-1.08l177.4-177.71c0.4-0.4 0.8-0.9 1.2-1.3l0.6-0.6c0.2-0.2 0.4-0.5 0.6-0.7a2.58 2.58 0 0 0 0.7-0.8 2 2 0 0 0 0.4-0.5 5.16 5.16 0 0 0 0.7-0.9c0.1-0.2 0.2-0.3 0.3-0.5s0.4-0.7 0.6-1a3.21 3.21 0 0 0 0.3-0.5c0.1-0.2 0.4-0.7 0.6-1l0.3-0.6c0.2-0.3 0.3-0.59 0.5-0.9l0.3-0.6c0.1-0.3 0.3-0.59 0.4-0.9s0.2-0.5 0.3-0.8 0.2-0.5 0.3-0.8l0.3-0.9a1.94 1.94 0 0 1 0.2-0.7c0.1-0.3 0.2-0.7 0.3-1a4.17 4.17 0 0 1 0.2-0.6c0.1-0.4 0.2-0.7 0.3-1.1 0-0.2 0.1-0.4 0.1-0.59a5 5 0 0 1 0.2-1.1c0-0.2 0.1-0.4 0.1-0.6a6.53 6.53 0 0 1 0.2-1.1c0-0.2 0.1-0.5 0.1-0.7 0-0.4 0.1-0.7 0.1-1.1a2.77 2.77 0 0 0 0.1-0.9 2 2 0 0 0 0.1-0.8 21.64 21.64 0 0 0 0-3.6 2 2 0 0 1-0.1-0.8 2.77 2.77 0 0 1-0.1-0.9c0-0.4-0.1-0.7-0.1-1.1 0-0.2-0.1-0.5-0.1-0.7a6.53 6.53 0 0 0-0.2-1.1c0-0.2-0.1-0.4-0.1-0.6a5 5 0 0 0-0.2-1.1c0-0.2-0.1-0.4-0.1-0.6-0.1-0.4-0.2-0.7-0.3-1.1-0.1-0.2-0.1-0.4-0.2-0.6s-0.2-0.7-0.3-1a1.83 1.83 0 0 0-0.2-0.7l-0.3-0.9c-0.1-0.3-0.2-0.5-0.3-0.8s-0.2-0.5-0.3-0.8-0.3-0.6-0.4-0.9l-0.3-0.6c-0.2-0.3-0.3-0.6-0.5-0.9l-0.3-0.6c-0.2-0.3-0.4-0.7-0.6-1a3.21 3.21 0 0 1-0.3-0.5c-0.1-0.2-0.4-0.7-0.6-1a3.21 3.21 0 0 1-0.3-0.5 6 6 0 0 1-0.7-0.9 2.38 2.38 0 0 1-0.4-0.5 2.83 2.83 0 0 1-0.7-0.8c-0.2-0.2-0.4-0.5-0.6-0.7a2.66 2.66 0 0 0-0.5-0.6 28.09 28.09 0 0 0-2.5-2.5 2.9 2.9 0 0 1-0.6-0.5c-0.2-0.2-0.5-0.4-0.7-0.6a2.55 2.55 0 0 0-0.8-0.7 2.1 2.1 0 0 0-0.5-0.4 5.44 5.44 0 0 0-0.9-0.7c-0.2-0.1-0.3-0.2-0.5-0.3s-0.7-0.4-1-0.6a3.21 3.21 0 0 0-0.5-0.3c-0.2-0.1-0.7-0.4-1-0.6l-0.6-0.3c-0.3-0.2-0.6-0.3-0.9-0.5a7.37 7.37 0 0 1-0.7-0.3c-0.3-0.1-0.6-0.3-0.9-0.4s-0.5-0.2-0.8-0.3-0.5-0.2-0.8-0.3l-0.9-0.3a1.94 1.94 0 0 1-0.7-0.2l-1-0.3c-0.2-0.1-0.4-0.1-0.6-0.2l-1.1-0.3c-0.2 0-0.4-0.1-0.6-0.1a9.68 9.68 0 0 1-1.1-0.3c-0.2 0-0.4-0.1-0.6-0.1a6.53 6.53 0 0 1-1.1-0.2c-0.2 0-0.5-0.1-0.7-0.1-0.39-0.04-0.69-0.14-1.09-0.14z" p-id="2230" fill="#000000"></path></svg>