<svg class="icon" viewBox="0 0 1024 1024" xmlns="http://www.w3.org/2000/svg"><path d="M924.236 877.122H535.088c-53.687-.028-97.212-43.483-97.225-97.1V99.887c.013-53.618 43.538-97.087 97.225-97.1h389.024c53.7 0 97.239 43.468 97.253 97.1V780.02a96.878 96.878 0 0 1-28.404 68.683 97.119 97.119 0 0 1-68.752 28.418h.027zm24.275-752.862c0-26.857-21.79-48.62-48.674-48.62h-340.35c-26.885 0-48.675 21.763-48.675 48.62v461.408h437.7V124.26zm0 534.275H510.812v97.1c0 26.858 21.79 48.62 48.675 48.62h340.474c26.857 0 48.647-21.762 48.647-48.62v-97.1h-.097zm-218.85 121.472a48.647 48.647 0 0 1-42.142-24.261 48.566 48.566 0 0 1-.042-48.592 48.665 48.665 0 0 1 42.116-24.316c26.871-.028 48.66 21.72 48.675 48.55.027 26.844-21.735 48.606-48.606 48.62zM140.43 274.551c16.21-27.99 40.016-63.284 71.389-94.588C276.304 115.505 362.165 72.92 362.165 72.92c13.408-14.388 13.007-36.8-.911-50.69-13.92-13.892-36.358-14.278-50.76-.87-14.388 13.408-82.726 45.443-147.363 109.956-35.916 35.93-65.894 77.369-85.613 107.278L17.231 204.21v194.34l194.574-83.238-71.362-40.735-.013-.027zM97.416 439.948h243.125a36.496 36.496 0 0 1 31.594 18.213c6.517 11.268 6.517 25.159 0 36.427S353.576 512.8 340.54 512.8H121.69c-26.857 0-48.646 21.762-48.646 48.62v340.06c0 26.83 21.748 48.592 48.647 48.592H778.24c13.463 0 24.303-10.937 24.303-24.248a36.43 36.43 0 0 1 18.24-31.552 36.545 36.545 0 0 1 36.482 0 36.398 36.398 0 0 1 18.241 31.552c-.027 53.632-43.551 97.115-97.252 97.115H97.389C43.702 1022.91.19 979.456.164 925.824V537.048c.014-53.618 43.538-97.086 97.225-97.1h.027zm0 0"/></svg>