<svg class="icon" viewBox="0 0 1024 1024" xmlns="http://www.w3.org/2000/svg"><path d="m1008.84 506.747-47.32-212.888-125.47-14.336-31.927-41.117 14.404-128.512-191.839-94.746-89.076 91.654h-51.224l-89.076-91.654-191.835 94.744 14.404 128.592-31.894 41.044-125.47 14.336-47.353 212.883 106.916 68.658 11.423 51.2-67.327 109.441 132.815 170.752L318 863.864l46.152 22.778 41.435 122.217h212.91l41.472-122.217 46.116-22.778 119.004 42.934 132.813-170.752-67.328-109.44 11.385-51.2 106.88-68.658zM864.428 730.772l-65.196 83.866-97.766-35.295-103.194 51.013-34.048 100.313H459.75l-34.057-100.313-103.187-51.011-97.77 35.293-65.2-83.866 55.303-89.87-25.501-114.51-87.796-56.394 23.235-104.538 103.04-11.752 71.382-91.8-11.813-105.552 94.182-46.537 73.18 75.247h114.546l73.176-75.247 94.18 46.538-11.812 105.551 71.412 91.8 103.046 11.754 23.233 104.498-87.826 56.431-25.472 114.508 55.197 89.873zM511.93 316.526c-105.285 0-190.634 87.54-190.634 195.496 0 108.064 85.312 195.571 190.634 195.571s190.634-87.507 190.634-195.573c0-107.956-85.312-195.495-190.634-195.495zm0 318.258c-65.842 0-119.405-54.976-119.405-122.547 0-67.49 53.563-122.467 119.405-122.467 65.874 0 119.442 54.976 119.442 122.467 0 67.571-53.568 122.547-119.442 122.547z"/></svg>