<svg class="icon" viewBox="0 0 1024 1024" data-spm-anchor-id="a313x.7781069.0.i0" xmlns="http://www.w3.org/2000/svg"><path d="m278.859 518.816 25.046-25.3v-95.769c-27.912-43.094-42.742-93.492-42.667-144.99 0-23.804 19.102-43.101 42.667-43.101H730.57c23.564 0 42.667 19.297 42.667 43.1.092 51.502-14.74 101.903-42.667 144.99v95.77l25.046 25.3c66.146 66.465 103.219 156.901 102.954 251.148 0 23.803-19.102 43.1-42.666 43.1h-256c-342.558-.855 64.35 0-341.334 0-23.564 0-42.666-19.297-42.666-43.1-.27-94.247 36.803-184.685 102.953-251.148zm491.009 208.047c-8.834-55.755-34.947-107.244-74.581-147.059l-37.547-37.929c-8.013-8.091-12.511-19.07-12.502-30.515V382.058c.002-11.43 4.499-22.39 12.5-30.471 12.746-16.211 21.321-35.357 24.96-55.73h-330.92c3.656 20.368 12.23 39.51 24.96 55.73 8.001 8.08 12.497 19.042 12.5 30.471V511.36c-.002 11.43-4.5 22.39-12.501 30.472L339.19 579.76c-39.624 39.84-65.733 91.339-74.581 147.102z"/></svg>