<svg xmlns="http://www.w3.org/2000/svg" viewBox="0 0 1024 1024" class="icon"><path d="M896 298.667H128a42.667 42.667 0 0 1 0-85.334h768a42.667 42.667 0 0 1 0 85.334z"/><path d="M725.333 981.333H298.667a128 128 0 0 1-128-128V256A42.667 42.667 0 0 1 256 256v597.333A42.667 42.667 0 0 0 298.667 896h426.666A42.667 42.667 0 0 0 768 853.333V256a42.667 42.667 0 0 1 85.333 0v597.333a128 128 0 0 1-128 128zm-42.666-682.666A42.667 42.667 0 0 1 640 256v-85.333A42.667 42.667 0 0 0 597.333 128H426.667A42.667 42.667 0 0 0 384 170.667V256a42.667 42.667 0 0 1-85.333 0v-85.333a128 128 0 0 1 128-128h170.666a128 128 0 0 1 128 128V256a42.667 42.667 0 0 1-42.666 42.667z"/><path d="M426.667 768A42.667 42.667 0 0 1 384 725.333v-256a42.667 42.667 0 0 1 85.333 0v256A42.667 42.667 0 0 1 426.667 768zm170.666 0a42.667 42.667 0 0 1-42.666-42.667v-256a42.667 42.667 0 0 1 85.333 0v256A42.667 42.667 0 0 1 597.333 768z"/></svg>