<svg class="icon" viewBox="0 0 1024 1024" xmlns="http://www.w3.org/2000/svg"><path d="M512.2 192c-159.8 0-311.4 59.8-427.8 168.2l-20.4 19 19.8 19.6 64.6 64 18.6 18.4 19.2-17.6c89-81.8 204.6-127 325.6-127 121 0 236.8 45.2 325.6 127l19.2 17.6 18.6-18.4 64.6-64 19.8-19.6-20.4-19C823.2 251.8 671.4 192 512.2 192z"/><path d="M794.8 512.8C717.2 442.6 617 404 512.6 404h-17.8l-.2.4c-98.4 4-192 42.2-265.2 108.4l-21 19 20.2 20 65.4 64.8 18.2 18 19.2-16.8c50.6-44.4 114.8-69 180.6-69 66.2 0 130.4 24.6 181 69l19.2 16.8 18.2-18 65.4-64.8 20.2-20-21.2-19z"/><path d="m512.4 832 19.2-19 105.6-104.4 21.2-21-23.2-19c-30.8-22.8-64.8-40-123-40-58 0-89.8 18.8-123 40l-23 19 21.2 21L493 813l19.4 19z"/></svg>