<svg xmlns="http://www.w3.org/2000/svg" viewBox="0 0 1024 1024" class="icon"><path d="M739.951 284.049v658.323H81.628V284.05H739.95m.608-75.984H80.412c-41.335 0-75.376 33.433-75.376 75.376v660.147c0 41.335 33.433 75.376 75.376 75.376H740.56c41.335 0 75.376-33.433 75.376-75.376V283.44c0-41.943-33.433-75.376-75.376-75.376z"/><path d="M944.196 5.644H282.833c-41.335 0-74.16 33.433-74.768 74.16v77.2h75.984V81.628h658.323V739.95h-75.984v75.984h77.2c41.335 0 74.16-33.433 74.768-74.768V79.804c0-40.727-33.433-74.16-74.16-74.16z"/></svg>