<svg xmlns="http://www.w3.org/2000/svg" viewBox="0 0 1024 1024" class="icon"><path d="m578.363 512 422.309-422.309c18.099-18.099 18.099-48.264 0-66.363-18.1-18.099-48.264-18.099-66.363 0L512 445.638 89.691 23.327c-18.099-18.099-48.264-18.099-66.363 0-18.099 18.1-18.099 48.264 0 66.363L445.638 512 23.327 934.309c-18.099 18.099-18.099 48.264 0 66.363 18.1 18.099 48.264 18.099 66.363 0L512 578.362l422.309 422.31c18.099 18.099 48.264 18.099 66.363 0 18.099-18.1 18.099-48.264 0-66.363L578.362 512z"/></svg>