<svg class="icon" viewBox="0 0 1024 1024" xmlns="http://www.w3.org/2000/svg"><path data-follow-fill="#09121F" d="M426.667 256H512v85.333h-85.333zM512 341.333h85.333v85.334H512zm-85.333 85.334H512V512h-85.333zm0 170.666v128h170.666V512H512v85.333z" fill="#09121F"/><path data-follow-fill="#09121F" d="M853.333 85.333H170.667C145.067 85.333 128 102.4 128 128v768c0 25.6 17.067 42.667 42.667 42.667h682.666C878.933 938.667 896 921.6 896 896V128c0-25.6-17.067-42.667-42.667-42.667zm-42.666 768H213.333V170.667H512V256h85.333v-85.333h213.334v682.666z" fill="#09121F"/></svg>